<?xml version="1.0" encoding="UTF-8" standalone="no"?>
<!DOCTYPE svg PUBLIC "-//W3C//DTD SVG 1.1//EN" "http://www.w3.org/Graphics/SVG/1.1/DTD/svg11.dtd">
<svg width="100%" height="100%" viewBox="0 0 2149 597" version="1.1" xmlns="http://www.w3.org/2000/svg" xmlns:xlink="http://www.w3.org/1999/xlink" xml:space="preserve" xmlns:serif="http://www.serif.com/" style="fill-rule:evenodd;clip-rule:evenodd;stroke-linejoin:round;stroke-miterlimit:2;">
    <g transform="matrix(0.95309,0,0,1.35584,-551.377,-2036.1)">
        <path d="M595.161,1682.78C587.992,1679.25 582.345,1674.91 578.223,1669.74C574.1,1664.58 572.935,1658.72 574.728,1652.16C577.596,1642.09 585.841,1631.38 599.463,1620.04C613.085,1608.7 630.293,1597.42 651.085,1586.2C671.877,1574.99 695.357,1564.34 721.527,1554.26C747.696,1544.18 775.03,1535.24 803.53,1527.43C832.029,1519.62 860.618,1513.44 889.297,1508.9C917.975,1504.37 945.22,1502.1 971.031,1502.1C984.295,1502.1 997.021,1502.79 1009.21,1504.18C1021.4,1505.57 1032.69,1507.64 1043.09,1510.42C1062.8,1515.96 1076.96,1522.64 1085.57,1530.45C1094.17,1538.26 1099.37,1546.2 1101.16,1554.26C1102.95,1562.33 1102.33,1570.14 1099.28,1577.7C1096.23,1585.26 1092.91,1591.43 1089.33,1596.22C1082.52,1605.55 1073.65,1614.62 1062.71,1623.44C1051.78,1632.26 1039.5,1640.76 1025.88,1648.95C1012.26,1657.14 997.559,1664.89 981.785,1672.2C966.012,1679.51 950.06,1686.18 933.928,1692.23C948.626,1696.52 961.173,1702.19 971.569,1709.24C981.965,1716.3 988.955,1725.12 992.54,1735.7C995.766,1745.78 995.945,1756.62 993.078,1768.21C990.21,1779.8 985.012,1791.27 977.484,1802.61C969.955,1813.95 960.276,1824.85 948.446,1835.3C936.616,1845.76 923.263,1855.09 908.386,1863.27C893.509,1871.46 877.467,1878.02 860.26,1882.93C843.052,1887.84 825.307,1890.43 807.025,1890.68C797.704,1890.68 789.011,1889.23 780.945,1886.33C772.879,1883.43 765.62,1879.65 759.167,1874.99C752.715,1870.33 747.248,1865.04 742.767,1859.12C738.286,1853.19 734.97,1847.34 732.819,1841.54C726.366,1842.8 719.196,1843.43 711.31,1843.43C701.272,1843.43 691.504,1841.86 682.004,1838.7C672.504,1835.56 666.141,1829.57 662.915,1820.75C660.764,1814.45 661.57,1805.5 665.334,1793.91C669.098,1782.32 674.834,1769.15 682.541,1754.41C690.249,1739.67 699.48,1724.05 710.234,1707.54C720.989,1691.04 732.102,1674.78 743.573,1658.78C755.045,1642.78 766.337,1627.6 777.45,1613.23C788.563,1598.87 798.421,1586.52 807.025,1576.19C788.025,1584.5 769.832,1593.39 752.446,1602.84C735.059,1612.29 719.645,1621.92 706.201,1631.75C692.758,1641.58 681.645,1651.35 672.862,1661.05C664.08,1670.75 658.792,1679.88 657,1688.45C656.641,1690.22 655.028,1691.54 652.16,1692.42C649.292,1693.3 645.707,1693.74 641.406,1693.74C634.953,1693.74 627.425,1692.8 618.821,1690.91C610.218,1689.02 602.331,1686.31 595.161,1682.78ZM736.045,1826.8C736.404,1832.59 738.913,1836.5 743.573,1838.52C748.951,1839.27 754.865,1839.65 761.318,1839.65C778.525,1839.65 796.987,1836.75 816.704,1830.96C836.42,1825.16 854.882,1817.73 872.089,1808.65C889.297,1799.58 903.815,1789.57 915.645,1778.6C927.475,1767.64 934.107,1756.87 935.541,1746.29C936.975,1733.43 933.838,1724.55 926.131,1719.64C918.423,1714.72 908.296,1712.27 895.749,1712.27C889.297,1712.27 882.396,1712.77 875.047,1713.78C867.698,1714.79 860.26,1716.05 852.731,1717.56C848.071,1718.82 842.873,1720.08 837.137,1721.34C823.873,1724.87 811.327,1728.52 799.497,1732.3C787.667,1736.08 778.167,1738.98 770.997,1740.99C763.469,1753.09 757.016,1764.62 751.639,1775.58C746.262,1786.54 742.229,1796.37 739.54,1805.06C736.852,1813.76 735.687,1821 736.045,1826.8ZM811.327,1681.65C835.345,1675.1 858.288,1667.54 880.155,1658.97C902.023,1650.4 921.919,1641.39 939.843,1631.94C957.767,1622.49 973.54,1613.04 987.163,1603.59C1000.78,1594.14 1011.54,1585.26 1019.43,1576.94C1027.31,1568.63 1031.88,1561.32 1033.14,1555.02C1034.39,1548.72 1031.79,1543.93 1025.34,1540.66C1019.25,1537.88 1012.35,1535.81 1004.64,1534.42C996.931,1533.03 988.417,1532.34 979.097,1532.34C964.399,1532.34 948.446,1533.92 931.239,1537.07C914.032,1540.22 896.108,1544.56 877.467,1550.11C887.146,1553.13 894.943,1556.91 900.858,1561.45C906.773,1565.98 907.579,1570.27 903.277,1574.3C897.183,1579.84 890.462,1586.46 883.113,1594.14C875.764,1601.83 868.057,1610.33 859.991,1619.66C851.925,1628.98 843.769,1638.87 835.524,1649.33C827.279,1659.79 819.213,1670.56 811.327,1681.65Z" style="fill-rule:nonzero;"/>
        <path d="M1042.01,1803.74C1036.63,1800.46 1032.51,1796.94 1029.64,1793.16C1025.7,1788.12 1023.46,1782.13 1022.92,1775.2C1022.38,1768.27 1023.01,1760.96 1024.8,1753.28C1026.6,1745.59 1029.37,1737.78 1033.14,1729.84C1036.9,1721.9 1041.11,1714.53 1045.78,1707.73C1050.43,1700.93 1055.45,1694.94 1060.83,1689.78C1066.21,1684.61 1071.41,1680.89 1076.42,1678.62C1077.86,1677.87 1079.38,1677.43 1081,1677.3C1082.61,1677.17 1084.31,1677.11 1086.1,1677.11C1087.54,1669.55 1090.85,1662.81 1096.05,1656.89C1101.25,1650.97 1106.9,1646.12 1112.99,1642.34C1119.08,1638.56 1127.42,1635.72 1137.99,1633.83C1148.57,1631.94 1159.77,1631 1171.6,1631C1187.38,1631 1202.52,1632.63 1217.04,1635.91C1231.56,1639.19 1242.22,1644.1 1249.03,1650.65C1252.62,1653.93 1254.86,1658.21 1255.76,1663.51C1256.65,1668.8 1256.74,1674.47 1256.03,1680.51C1255.31,1686.56 1253.87,1692.8 1251.72,1699.23C1249.57,1705.65 1247.24,1711.64 1244.73,1717.18C1251.9,1715.67 1258.89,1713.78 1265.7,1711.51C1272.52,1709.24 1278.97,1706.47 1285.06,1703.19C1287.93,1701.43 1291.16,1700.55 1294.74,1700.55C1299.76,1700.55 1303.88,1702.25 1307.11,1705.65C1310.34,1709.05 1311.05,1713.27 1309.26,1718.31C1307.83,1722.35 1304.6,1726 1299.58,1729.28C1294.56,1732.55 1288.29,1735.45 1280.76,1737.97C1273.23,1740.49 1264.81,1742.57 1255.49,1744.21C1246.17,1745.84 1236.67,1747.17 1226.99,1748.17C1216.95,1762.54 1205.57,1775.58 1192.84,1787.3C1180.12,1799.02 1167.48,1807.39 1154.93,1812.43C1141.67,1817.22 1126.79,1819.62 1110.3,1819.62C1101.7,1819.62 1093.18,1818.99 1084.76,1817.73C1076.34,1816.47 1068.54,1814.64 1061.37,1812.25C1054.2,1809.85 1047.75,1807.02 1042.01,1803.74ZM1092.02,1778.79C1092.74,1782.83 1095.25,1785.72 1099.55,1787.49C1100.26,1787.99 1101.34,1788.24 1102.77,1788.24C1108.87,1788.24 1116.93,1784.34 1126.97,1776.53C1137.01,1768.71 1146.51,1759.14 1155.47,1747.8C1146.87,1746.03 1138.35,1743.51 1129.93,1740.24C1121.5,1736.96 1114.78,1733.56 1109.76,1730.03C1105.82,1736.08 1102.24,1742.13 1099.01,1748.17C1095.78,1754.22 1093.54,1759.89 1092.29,1765.18C1091.03,1770.48 1090.94,1775.01 1092.02,1778.79ZM1143.1,1695.63C1143.46,1699.67 1145.34,1703.26 1148.75,1706.41C1152.15,1709.56 1156.46,1712.14 1161.65,1714.16C1166.85,1716.17 1172.14,1717.43 1177.52,1717.94C1184.69,1706.85 1189.62,1696.77 1192.31,1687.7C1194.99,1678.62 1195.62,1672.7 1194.19,1669.93C1192.04,1665.39 1188.45,1663.13 1183.43,1663.13C1180.21,1663.13 1176.71,1663.82 1172.95,1665.21C1169.18,1666.59 1165.6,1668.29 1162.19,1670.31C1158.79,1672.33 1155.74,1674.47 1153.05,1676.73C1150.36,1679 1148.48,1680.89 1147.4,1682.4C1143.82,1687.19 1142.39,1691.6 1143.1,1695.63Z" style="fill-rule:nonzero;"/>
        <path d="M1269.47,1803.74C1264.09,1800.46 1259.97,1796.94 1257.1,1793.16C1253.16,1788.12 1250.92,1782.13 1250.38,1775.2C1249.84,1768.27 1250.47,1760.96 1252.26,1753.28C1254.05,1745.59 1256.83,1737.78 1260.6,1729.84C1264.36,1721.9 1268.57,1714.53 1273.23,1707.73C1277.89,1700.93 1282.91,1694.94 1288.29,1689.78C1293.67,1684.61 1298.86,1680.89 1303.88,1678.62C1305.32,1677.87 1306.84,1677.43 1308.45,1677.3C1310.07,1677.17 1311.77,1677.11 1313.56,1677.11C1315,1669.55 1318.31,1662.81 1323.51,1656.89C1328.71,1650.97 1334.35,1646.12 1340.45,1642.34C1346.54,1638.56 1354.88,1635.72 1365.45,1633.83C1376.03,1631.94 1387.23,1631 1399.06,1631C1414.83,1631 1429.98,1632.63 1444.5,1635.91C1459.02,1639.19 1469.68,1644.1 1476.49,1650.65C1480.08,1653.93 1482.32,1658.21 1483.21,1663.51C1484.11,1668.8 1484.2,1674.47 1483.48,1680.51C1482.77,1686.56 1481.33,1692.8 1479.18,1699.23C1477.03,1705.65 1474.7,1711.64 1472.19,1717.18C1479.36,1715.67 1486.35,1713.78 1493.16,1711.51C1499.97,1709.24 1506.42,1706.47 1512.52,1703.19C1515.39,1701.43 1518.61,1700.55 1522.2,1700.55C1527.22,1700.55 1531.34,1702.25 1534.57,1705.65C1537.79,1709.05 1538.51,1713.27 1536.72,1718.31C1535.28,1722.35 1532.06,1726 1527.04,1729.28C1522.02,1732.55 1515.75,1735.45 1508.22,1737.97C1500.69,1740.49 1492.27,1742.57 1482.94,1744.21C1473.62,1745.84 1464.12,1747.17 1454.44,1748.17C1444.41,1762.54 1433.03,1775.58 1420.3,1787.3C1407.57,1799.02 1394.94,1807.39 1382.39,1812.43C1369.13,1817.22 1354.25,1819.62 1337.76,1819.62C1329.15,1819.62 1320.64,1818.99 1312.22,1817.73C1303.79,1816.47 1296,1814.64 1288.83,1812.25C1281.66,1809.85 1275.2,1807.02 1269.47,1803.74ZM1319.48,1778.79C1320.19,1782.83 1322.7,1785.72 1327.01,1787.49C1327.72,1787.99 1328.8,1788.24 1330.23,1788.24C1336.33,1788.24 1344.39,1784.34 1354.43,1776.53C1364.47,1768.71 1373.97,1759.14 1382.93,1747.8C1374.32,1746.03 1365.81,1743.51 1357.39,1740.24C1348.96,1736.96 1342.24,1733.56 1337.22,1730.03C1333.28,1736.08 1329.69,1742.13 1326.47,1748.17C1323.24,1754.22 1321,1759.89 1319.75,1765.18C1318.49,1770.48 1318.4,1775.01 1319.48,1778.79ZM1370.56,1695.63C1370.92,1699.67 1372.8,1703.26 1376.21,1706.41C1379.61,1709.56 1383.91,1712.14 1389.11,1714.16C1394.31,1716.17 1399.6,1717.43 1404.98,1717.94C1412.14,1706.85 1417.07,1696.77 1419.76,1687.7C1422.45,1678.62 1423.08,1672.7 1421.64,1669.93C1419.49,1665.39 1415.91,1663.13 1410.89,1663.13C1407.66,1663.13 1404.17,1663.82 1400.4,1665.21C1396.64,1666.59 1393.06,1668.29 1389.65,1670.31C1386.24,1672.33 1383.2,1674.47 1380.51,1676.73C1377.82,1679 1375.94,1680.89 1374.86,1682.4C1371.28,1687.19 1369.84,1691.6 1370.56,1695.63Z" style="fill-rule:nonzero;"/>
        <path d="M1489.93,1813.19C1484.92,1809.66 1481.51,1806.26 1479.72,1802.98C1479.36,1802.48 1479.09,1802.04 1478.91,1801.66C1478.73,1801.28 1478.46,1800.84 1478.11,1800.34C1475.6,1794.8 1475.95,1786.73 1479.18,1776.15C1482.41,1765.56 1487.61,1753.47 1494.78,1739.86C1501.94,1726.25 1510.73,1711.64 1521.12,1696.01C1531.52,1680.39 1542.54,1664.64 1554.19,1648.76C1565.84,1632.89 1577.67,1617.45 1589.68,1602.46C1601.69,1587.47 1612.99,1573.79 1623.56,1561.45C1634.13,1549.1 1643.55,1538.64 1651.79,1530.07C1660.04,1521.51 1666.31,1515.71 1670.61,1512.68C1676.7,1508.9 1683.52,1507.02 1691.04,1507.02C1697.5,1507.02 1704.04,1508.09 1710.67,1510.23C1717.3,1512.37 1723.04,1514.89 1727.88,1517.79C1732.72,1520.69 1736.21,1523.77 1738.36,1527.05C1740.52,1530.33 1740.16,1533.1 1737.29,1535.37C1722.23,1547.46 1706.46,1562.58 1689.97,1580.72C1673.48,1598.87 1657.53,1618.02 1642.11,1638.18C1626.7,1658.34 1612.27,1678.43 1598.82,1698.47C1585.38,1718.5 1574.36,1736.52 1565.75,1752.52C1557.15,1768.52 1551.41,1781.57 1548.55,1791.64C1545.68,1801.72 1547.11,1806.76 1552.85,1806.76C1554.64,1806.76 1556.08,1806.64 1557.15,1806.39C1565.04,1802.86 1573.82,1797.5 1583.5,1790.32C1593.18,1783.14 1603.22,1774.76 1613.61,1765.18C1624.01,1755.61 1634.4,1745.03 1644.8,1733.43C1655.2,1721.84 1665.23,1709.87 1674.91,1697.52C1678.5,1693.24 1682.98,1691.1 1688.36,1691.1C1691.58,1691.1 1694.72,1691.73 1697.77,1692.99C1700.81,1694.25 1703.59,1695.63 1706.1,1697.15C1708.97,1698.91 1711.84,1700.93 1714.7,1703.19C1710.76,1708.99 1705.38,1716.3 1698.57,1725.12C1691.76,1733.94 1684.05,1743.2 1675.45,1752.9C1666.85,1762.6 1657.44,1772.24 1647.22,1781.82C1637,1791.39 1626.61,1800.02 1616.03,1807.71C1605.46,1815.39 1594.7,1821.63 1583.77,1826.42C1572.83,1831.21 1562.35,1833.6 1552.31,1833.6C1545.5,1833.6 1538.15,1832.66 1530.27,1830.77C1522.38,1828.88 1515.03,1826.42 1508.22,1823.4C1501.41,1820.37 1495.31,1816.97 1489.93,1813.19Z" style="fill-rule:nonzero;"/>
        <path d="M1657.17,1806.01C1650.72,1803.24 1644.98,1799.96 1639.96,1796.18C1634.94,1792.4 1631.72,1788.62 1630.28,1784.84C1627.41,1777.79 1627.06,1769.53 1629.21,1760.08C1631.36,1750.63 1635.21,1740.68 1640.77,1730.22C1646.32,1719.76 1653.31,1709.37 1661.74,1699.04C1670.16,1688.7 1679.12,1679.13 1688.62,1670.31C1698.12,1661.49 1707.98,1653.99 1718.2,1647.82C1728.42,1641.64 1738.01,1637.55 1746.97,1635.53C1753.42,1634.02 1760.59,1633.27 1768.48,1633.27C1775.29,1633.27 1782.01,1633.71 1788.64,1634.59C1795.27,1635.47 1801.46,1636.54 1807.19,1637.8C1812.93,1639.06 1817.68,1640.45 1821.44,1641.96C1825.21,1643.47 1827.45,1644.86 1828.16,1646.12C1828.52,1646.62 1829.51,1647.76 1831.12,1649.52C1832.74,1651.28 1834.26,1652.8 1835.69,1654.06C1837.49,1651.54 1839.28,1649.08 1841.07,1646.68C1842.86,1644.29 1844.65,1641.96 1846.45,1639.69C1848.24,1637.17 1851.11,1635.41 1855.05,1634.4C1858.99,1633.39 1863.48,1632.89 1868.49,1632.89C1874.59,1632.89 1880.95,1633.58 1887.58,1634.97C1894.22,1636.35 1900.13,1638.05 1905.33,1640.07C1910.53,1642.09 1914.47,1644.29 1917.16,1646.68C1919.85,1649.08 1920.12,1651.41 1917.96,1653.68C1907.57,1665.02 1896.81,1679.69 1885.7,1697.71C1874.59,1715.73 1863.38,1735.07 1852.09,1755.74C1840.8,1776.4 1829.42,1797.25 1817.95,1818.29C1806.48,1839.34 1795.09,1858.61 1783.8,1876.13C1772.51,1893.64 1761.31,1908.26 1750.19,1919.97C1739.08,1931.69 1728.33,1938.56 1717.93,1940.57C1713.63,1941.58 1709.15,1942.09 1704.49,1942.09C1695.17,1942.09 1687.82,1940.45 1682.44,1937.17C1677.06,1933.9 1672.94,1930.24 1670.07,1926.21C1666.49,1921.67 1663.98,1916.38 1662.55,1910.34L1666.31,1910.34C1675.99,1910.34 1685.67,1905.67 1695.35,1896.35C1705.03,1887.03 1714.7,1874.8 1724.38,1859.68C1734.06,1844.56 1743.74,1827.49 1753.42,1808.47C1763.1,1789.44 1772.78,1770.23 1782.46,1750.82C1775.65,1758.63 1768.75,1766.13 1761.76,1773.31C1754.77,1780.49 1748.04,1786.92 1741.59,1792.59C1735.14,1798.26 1729.04,1802.98 1723.31,1806.76C1717.57,1810.54 1712.55,1813.06 1708.25,1814.32C1707.53,1814.58 1707,1814.7 1706.64,1814.7C1706.28,1814.7 1705.74,1814.83 1705.03,1815.08C1703.95,1815.08 1702.87,1815.14 1701.8,1815.27C1700.72,1815.39 1699.65,1815.46 1698.57,1815.46C1692.48,1815.46 1685.76,1814.58 1678.41,1812.81C1671.06,1811.05 1663.98,1808.78 1657.17,1806.01ZM1695.35,1769.72C1695.7,1774.26 1698.21,1776.78 1702.87,1777.28C1706.1,1777.53 1710.85,1775.33 1717.12,1770.67C1723.4,1766 1730.57,1759.77 1738.63,1751.95C1746.7,1744.14 1755.3,1735.32 1764.44,1725.5C1773.59,1715.67 1782.64,1705.71 1791.6,1695.63C1798.05,1684.29 1800.83,1676.55 1799.93,1672.39C1799.04,1668.23 1796.62,1666.15 1792.67,1666.15C1790.16,1666.15 1787.12,1666.78 1783.53,1668.04C1774.21,1672.07 1765.07,1677.55 1756.11,1684.48C1747.15,1691.41 1738.9,1698.85 1731.37,1706.79C1723.85,1714.72 1717.21,1722.72 1711.48,1730.79C1705.74,1738.85 1701.44,1746.22 1698.57,1752.9C1695.7,1759.58 1694.63,1765.18 1695.35,1769.72Z" style="fill-rule:nonzero;"/>
        <path d="M1902.91,1718.31C1910.08,1707.23 1917.07,1696.52 1923.88,1686.18C1930.69,1675.85 1937.05,1666.47 1942.97,1658.02C1948.88,1649.58 1953.45,1643.22 1956.68,1638.93C1958.11,1637.42 1960.53,1636.35 1963.94,1635.72C1967.35,1635.09 1971.56,1634.78 1976.58,1634.78C1981.95,1634.78 1987.69,1635.15 1993.78,1635.91C1999.88,1636.67 2005.34,1637.67 2010.18,1638.93C2015.02,1640.19 2018.79,1641.71 2021.48,1643.47C2024.16,1645.24 2024.97,1647.12 2023.9,1649.14C2020.67,1654.94 2016.64,1660.99 2011.8,1667.29C2006.96,1673.59 2002.57,1679.38 1998.62,1684.67C2005.08,1678.62 2012.34,1672.58 2020.4,1666.53C2028.47,1660.48 2036.53,1655.06 2044.6,1650.28C2052.66,1645.49 2060.19,1641.64 2067.18,1638.75C2074.17,1635.85 2079.82,1634.53 2084.12,1634.78C2091.65,1635.03 2099.54,1635.6 2107.78,1636.48C2116.03,1637.36 2123.47,1638.56 2130.1,1640.07C2136.73,1641.58 2141.93,1643.47 2145.69,1645.74C2149.45,1648.01 2150.62,1650.65 2149.19,1653.68C2145.6,1661.49 2139.78,1671.07 2131.71,1682.4C2123.64,1693.74 2115.85,1704.89 2108.32,1715.86C2100.79,1726.82 2094.52,1736.58 2089.5,1745.15C2084.48,1753.72 2083.22,1759.14 2085.73,1761.4C2087.17,1763.17 2084.48,1764.05 2077.67,1764.05C2070.5,1764.05 2061.54,1762.73 2050.78,1760.08C2040.03,1757.44 2031.6,1752.84 2025.51,1746.29C2023,1743.77 2022.55,1740.05 2024.16,1735.13C2025.78,1730.22 2028.38,1724.8 2031.96,1718.88C2035.55,1712.96 2039.67,1706.97 2044.33,1700.93C2048.99,1694.88 2053.2,1689.33 2056.97,1684.29C2060.73,1679.25 2063.51,1675.1 2065.3,1671.82C2067.09,1668.55 2066.91,1666.91 2064.76,1666.91C2062.61,1666.65 2058.4,1668.29 2052.13,1671.82C2045.85,1675.35 2038.41,1680.39 2029.81,1686.94C2021.21,1693.49 2011.89,1701.37 2001.85,1710.57C1991.81,1719.76 1981.86,1729.97 1972.01,1741.18C1962.15,1752.4 1952.83,1764.49 1944.04,1777.47C1935.26,1790.45 1927.82,1803.99 1921.73,1818.1C1918.86,1819.36 1915.45,1819.99 1911.51,1819.99C1906.49,1819.99 1900.94,1819.24 1894.84,1817.73C1888.75,1816.21 1883.1,1814.32 1877.9,1812.06C1872.71,1809.79 1868.31,1807.2 1864.73,1804.31C1861.14,1801.41 1859.71,1798.45 1860.43,1795.42C1861.14,1791.64 1863.56,1785.79 1867.69,1777.85C1871.81,1769.91 1876.92,1760.84 1883.01,1750.63C1889.11,1740.43 1895.74,1729.65 1902.91,1718.31Z" style="fill-rule:nonzero;"/>
        <path d="M2118.53,1801.09C2113.88,1797.32 2110.83,1793.41 2109.39,1789.38C2106.53,1782.07 2106.17,1773.5 2108.32,1763.67C2110.47,1753.85 2114.41,1743.51 2120.15,1732.68C2125.88,1721.84 2132.96,1711.01 2141.39,1700.17C2149.81,1689.33 2158.95,1679.38 2168.81,1670.31C2178.67,1661.24 2188.71,1653.61 2198.93,1647.44C2209.14,1641.27 2218.91,1637.3 2228.23,1635.53C2230.74,1635.03 2233.61,1634.65 2236.84,1634.4C2240.06,1634.15 2243.65,1634.02 2247.59,1634.02C2256.19,1634.02 2265.33,1634.71 2275.01,1636.1C2284.69,1637.49 2292.58,1639.57 2298.67,1642.34C2301.54,1643.6 2303.33,1645.36 2304.05,1647.63C2304.77,1649.9 2305.48,1651.54 2306.2,1652.54C2307.28,1651.28 2309.16,1648.89 2311.85,1645.36C2314.54,1641.83 2316.42,1639.44 2317.49,1638.18C2318.57,1636.67 2320.9,1635.53 2324.48,1634.78C2328.07,1634.02 2332.37,1633.64 2337.39,1633.64C2343.48,1633.64 2349.76,1634.08 2356.21,1634.97C2362.66,1635.85 2368.49,1637.05 2373.69,1638.56C2378.88,1640.07 2382.83,1641.9 2385.52,1644.04C2388.2,1646.18 2388.65,1648.38 2386.86,1650.65C2375.03,1665.77 2363.47,1680.89 2352.18,1696.01C2340.89,1711.13 2331.21,1724.87 2323.14,1737.21C2315.07,1749.56 2309.25,1759.89 2305.66,1768.21C2302.08,1776.53 2301.72,1781.57 2304.59,1783.33C2304.95,1783.58 2305.84,1783.71 2307.28,1783.71C2310.5,1783.71 2314.89,1781.94 2320.45,1778.41C2326.01,1774.89 2332.1,1770.35 2338.73,1764.81C2345.37,1759.26 2352.18,1753.09 2359.17,1746.29C2366.16,1739.48 2372.79,1732.87 2379.06,1726.44C2385.34,1720.02 2390.89,1714.16 2395.73,1708.86C2400.57,1703.57 2404.07,1699.54 2406.22,1696.77C2406.93,1696.01 2408.19,1695.13 2409.98,1694.12C2411.78,1693.11 2414.11,1692.61 2416.97,1692.61C2424.5,1692.86 2429.61,1695 2432.3,1699.04C2434.99,1703.07 2434.72,1707.23 2431.49,1711.51C2427.55,1716.55 2422.53,1722.66 2416.43,1729.84C2410.34,1737.03 2403.53,1744.65 2396,1752.71C2388.47,1760.78 2380.23,1768.78 2371.27,1776.71C2362.3,1784.65 2353.16,1791.83 2343.84,1798.26C2334.52,1804.68 2325.2,1809.85 2315.88,1813.76C2306.56,1817.66 2297.42,1819.62 2288.46,1819.62C2283.8,1819.62 2278.69,1819.11 2273.13,1818.1C2267.58,1817.1 2262.2,1815.46 2257,1813.19C2251.8,1810.92 2247.23,1807.96 2243.29,1804.31C2239.34,1800.65 2236.48,1796.18 2234.68,1790.89C2234.33,1788.87 2234.06,1787.05 2233.88,1785.41C2233.7,1783.77 2233.61,1781.94 2233.61,1779.93C2231.46,1782.19 2228.23,1785.47 2223.93,1789.76C2219.63,1794.04 2214.88,1798.45 2209.68,1802.98C2204.48,1807.52 2199.19,1811.49 2193.82,1814.89C2188.44,1818.29 2183.6,1820.12 2179.3,1820.37C2178.22,1820.62 2176.07,1820.75 2172.85,1820.75C2167.11,1820.75 2160.84,1819.87 2154.03,1818.1C2147.21,1816.34 2140.76,1814.01 2134.67,1811.11C2128.57,1808.21 2123.2,1804.87 2118.53,1801.09ZM2177.15,1781.82C2180.37,1782.07 2185.39,1779.74 2192.2,1774.82C2199.01,1769.91 2206.54,1763.36 2214.79,1755.17C2223.03,1746.98 2231.82,1737.78 2241.14,1727.58C2250.46,1717.37 2259.42,1707.35 2268.02,1697.52C2271.97,1691.48 2274.83,1686.5 2276.63,1682.59C2278.42,1678.69 2279.58,1675.6 2280.12,1673.33C2280.66,1671.07 2280.48,1669.55 2279.58,1668.8C2278.69,1668.04 2277.52,1667.66 2276.09,1667.66C2274.66,1667.66 2272.86,1667.91 2270.71,1668.42C2262.83,1670.18 2254.67,1674.03 2246.24,1679.95C2237.82,1685.87 2229.66,1692.8 2221.78,1700.74C2213.89,1708.67 2206.63,1717.12 2200,1726.06C2193.37,1735.01 2187.9,1743.39 2183.6,1751.2C2179.3,1759.01 2176.43,1765.75 2175,1771.42C2173.56,1777.09 2174.28,1780.56 2177.15,1781.82Z" style="fill-rule:nonzero;"/>
        <path d="M2367.5,1745.15C2373.95,1733.56 2380.95,1721.53 2388.47,1709.05C2396,1696.58 2403.26,1685.05 2410.25,1674.47C2417.24,1663.88 2423.69,1654.87 2429.61,1647.44C2435.52,1640.01 2439.92,1635.41 2442.78,1633.64C2445.29,1631.88 2450.49,1631 2458.38,1631C2463.76,1631 2469.58,1631.38 2475.85,1632.13C2482.13,1632.89 2487.86,1634.02 2493.06,1635.53C2498.26,1637.05 2502.2,1638.87 2504.89,1641.01C2507.58,1643.16 2508.03,1645.61 2506.24,1648.38C2504.44,1650.9 2501.04,1655.63 2496.02,1662.56C2491,1669.49 2485.89,1676.61 2480.69,1683.92C2475.49,1691.22 2470.92,1697.71 2466.98,1703.38C2463.04,1709.05 2461.24,1711.76 2461.6,1711.51C2462.68,1710.5 2465.55,1708.05 2470.21,1704.14C2474.87,1700.23 2480.51,1695.51 2487.15,1689.96C2493.78,1684.42 2500.95,1678.5 2508.66,1672.2C2516.36,1665.9 2523.89,1660.04 2531.24,1654.62C2538.59,1649.2 2545.4,1644.54 2551.67,1640.64C2557.95,1636.73 2562.7,1634.4 2565.92,1633.64C2567.72,1633.14 2569.95,1632.76 2572.64,1632.51C2575.33,1632.26 2578.29,1632.13 2581.52,1632.13C2587.25,1632.13 2593.35,1632.45 2599.8,1633.08C2606.25,1633.71 2612.08,1634.78 2617.28,1636.29C2622.47,1637.8 2626.6,1639.82 2629.64,1642.34C2632.69,1644.86 2633.68,1647.88 2632.6,1651.41C2631.53,1654.43 2628.93,1659.22 2624.8,1665.77C2620.68,1672.33 2616.02,1679.44 2610.82,1687.13C2605.62,1694.82 2600.7,1702.38 2596.03,1709.81C2591.38,1717.24 2587.97,1723.23 2585.82,1727.76C2589.76,1723.73 2594.87,1718.69 2601.14,1712.64C2607.42,1706.6 2614.41,1700.17 2622.12,1693.37C2629.82,1686.56 2637.89,1679.63 2646.31,1672.58C2654.74,1665.52 2662.8,1659.16 2670.51,1653.49C2678.22,1647.82 2685.3,1643.22 2691.75,1639.69C2698.2,1636.16 2703.58,1634.27 2707.88,1634.02L2717.02,1634.02C2735.31,1634.02 2749.11,1636.16 2758.43,1640.45C2767.75,1644.73 2771.33,1649.02 2769.18,1653.3C2766.31,1659.85 2762.37,1667.6 2757.35,1676.55C2752.33,1685.49 2747.05,1694.75 2741.49,1704.33C2735.93,1713.9 2730.38,1723.29 2724.82,1732.49C2719.26,1741.69 2714.6,1750 2710.84,1757.44C2707.08,1764.87 2704.3,1771.04 2702.5,1775.96C2700.71,1780.87 2700.89,1783.58 2703.04,1784.09L2704.12,1784.09C2706.99,1784.09 2710.75,1782.57 2715.41,1779.55C2720.07,1776.53 2725.27,1772.62 2731,1767.83C2736.74,1763.04 2742.66,1757.69 2748.75,1751.77C2754.84,1745.84 2760.76,1739.99 2766.49,1734.19C2772.23,1728.39 2777.52,1722.91 2782.36,1717.75C2787.2,1712.58 2791.05,1708.49 2793.92,1705.46C2797.14,1702.19 2800.19,1699.92 2803.06,1698.66C2805.93,1697.4 2810.23,1696.77 2815.96,1696.77C2820.62,1697.27 2824.03,1699.04 2826.18,1702.06C2828.33,1705.08 2828.15,1708.23 2825.64,1711.51C2821.34,1716.8 2816.14,1723.16 2810.05,1730.6C2803.95,1738.03 2797.14,1745.78 2789.62,1753.85C2782.09,1761.91 2774.11,1769.97 2765.69,1778.04C2757.26,1786.1 2748.66,1793.28 2739.88,1799.58C2731.09,1805.88 2722.31,1811.05 2713.53,1815.08C2704.74,1819.11 2696.23,1821.13 2687.99,1821.13C2685.84,1821.13 2682.16,1820.75 2676.96,1819.99C2671.76,1819.24 2666.21,1817.91 2660.29,1816.03C2654.38,1814.13 2648.82,1811.62 2643.62,1808.47C2638.43,1805.32 2634.75,1801.47 2632.6,1796.94C2630.81,1792.65 2630.54,1787.17 2631.79,1780.49C2633.05,1773.82 2635.29,1766.7 2638.51,1759.14C2641.74,1751.58 2645.33,1744.02 2649.27,1736.46C2653.21,1728.9 2656.89,1722.03 2660.29,1715.86C2663.7,1709.68 2666.39,1704.71 2668.36,1700.93C2670.33,1697.15 2670.78,1695.26 2669.7,1695.26C2668.63,1695.26 2665.58,1697.08 2660.56,1700.74C2655.54,1704.39 2649.45,1709.37 2642.28,1715.67C2635.11,1721.97 2627.13,1729.15 2618.35,1737.21C2609.57,1745.28 2600.87,1753.78 2592.27,1762.73C2583.67,1771.67 2575.51,1780.68 2567.8,1789.76C2560.1,1798.83 2553.73,1807.39 2548.72,1815.46C2547.28,1817.22 2543.52,1818.1 2537.42,1818.1C2533.12,1818.1 2528.19,1817.66 2522.64,1816.78C2517.08,1815.9 2511.61,1814.64 2506.24,1813C2500.86,1811.36 2496.2,1809.41 2492.25,1807.14C2488.31,1804.87 2485.8,1802.48 2484.73,1799.96C2483.65,1797.44 2484.01,1793.35 2485.8,1787.68C2487.59,1782.01 2490.19,1775.52 2493.6,1768.21C2497,1760.9 2500.95,1753.28 2505.43,1745.34C2509.91,1737.4 2514.12,1729.97 2518.07,1723.04C2522.01,1716.11 2525.41,1710.19 2528.28,1705.27C2531.15,1700.36 2532.76,1697.4 2533.12,1696.39C2533.48,1695.38 2531.51,1696.01 2527.21,1698.28C2522.9,1700.55 2517.26,1704.14 2510.27,1709.05C2503.28,1713.97 2495.3,1720.14 2486.34,1727.58C2477.38,1735.01 2468.33,1743.32 2459.18,1752.52C2450.04,1761.72 2441.17,1771.86 2432.57,1782.95C2423.96,1794.04 2416.61,1805.63 2410.52,1817.73C2407.65,1819.49 2402.99,1820.37 2396.54,1820.37C2391.52,1820.37 2386.14,1819.81 2380.41,1818.67C2374.67,1817.54 2369.38,1815.96 2364.54,1813.95C2359.7,1811.93 2355.58,1809.54 2352.18,1806.76C2348.77,1803.99 2347.07,1800.97 2347.07,1797.69C2347.07,1792.9 2348.95,1785.85 2352.71,1776.53C2356.48,1767.2 2361.41,1756.74 2367.5,1745.15Z" style="fill-rule:nonzero;"/>
    </g>
</svg>
