<?xml version="1.0" encoding="UTF-8" standalone="no"?>
<!DOCTYPE svg PUBLIC "-//W3C//DTD SVG 1.1//EN" "http://www.w3.org/Graphics/SVG/1.1/DTD/svg11.dtd">
<svg width="100%" height="100%" viewBox="0 0 512 512" version="1.1" xmlns="http://www.w3.org/2000/svg" xmlns:xlink="http://www.w3.org/1999/xlink" xml:space="preserve" xmlns:serif="http://www.serif.com/" style="fill-rule:evenodd;clip-rule:evenodd;stroke-linejoin:round;stroke-miterlimit:2;">
    <g transform="matrix(0.1,0,0,-0.1,0,512)">
        <path d="M1680,5115C1672,5113 1631,5106 1590,5100C1224,5040 887,4784 719,4437C697,4392 670,4325 659,4288L638,4220L378,4220C127,4220 116,4219 78,4198C2,4155 -16,4076 16,3922C76,3627 307,3396 602,3336C644,3327 697,3320 719,3320C757,3320 762,3317 800,3261C822,3228 840,3197 840,3193C840,3188 806,3151 764,3110C361,2712 181,2107 300,1542C452,819 1063,257 1910,61C2401,-53 3143,4 3680,197C4500,491 5026,1147 5110,1979C5175,2625 4938,3203 4600,3228C4481,3236 4375,3198 4100,3047C3638,2793 3394,2722 3128,2760C2965,2784 2768,2872 2655,2972L2600,3022L2661,3088C2819,3256 2912,3427 2968,3650C2990,3740 2994,3777 2994,3910C2995,4078 2984,4152 2939,4292C2843,4588 2620,4849 2340,4990C2174,5074 2034,5108 1835,5115C1758,5117 1688,5117 1680,5115ZM2022,4791C2339,4708 2584,4464 2672,4145C2702,4033 2703,3810 2672,3699C2617,3495 2540,3383 2316,3178C2272,3138 2267,3128 2262,3081C2258,3036 2262,3020 2293,2956C2401,2739 2693,2545 3020,2474C3137,2449 3381,2448 3500,2474C3667,2509 3828,2570 4040,2679C4153,2736 4306,2815 4380,2852C4454,2890 4533,2924 4555,2927C4593,2932 4599,2929 4633,2891C4768,2742 4845,2362 4811,2016C4765,1547 4563,1145 4230,856C3832,511 3277,328 2560,303C2175,290 1837,359 1511,516C951,786 609,1239 571,1763C541,2180 673,2580 934,2857C974,2900 1033,2955 1065,2980C1175,3065 1199,3091 1210,3131C1226,3189 1210,3231 1142,3308C1064,3397 1026,3455 980,3553C919,3685 905,3753 906,3920C907,4047 910,4076 934,4155C1038,4503 1296,4739 1643,4806C1740,4824 1922,4817 2022,4791ZM608,3808C615,3746 623,3683 626,3668C634,3633 624,3633 555,3665C464,3709 359,3819 335,3898L329,3920L596,3920L608,3808Z" style="fill-rule:nonzero;"/>
        <path d="M1279,4198C1236,4174 1200,4115 1200,4071C1200,3994 1274,3920 1350,3920C1426,3920 1500,3994 1500,4070C1500,4120 1465,4177 1420,4200C1370,4226 1325,4225 1279,4198Z" style="fill-rule:nonzero;"/>
        <path d="M2400,2264C2002,2213 1694,2035 1565,1781C1448,1548 1494,1289 1688,1092C1838,940 2027,845 2286,793C2408,769 2688,769 2815,793C3064,842 3261,938 3400,1079C3518,1198 3563,1287 3542,1359C3526,1410 3494,1441 3409,1483L3339,1518L3422,1562C3557,1633 3581,1706 3509,1826C3384,2032 3134,2184 2820,2245C2738,2261 2471,2273 2400,2264ZM2720,1955C2842,1937 2936,1908 3030,1859C3107,1819 3169,1775 3160,1767C3157,1764 3095,1733 3023,1696C2905,1637 2888,1626 2870,1590C2844,1539 2845,1495 2873,1445C2892,1410 2913,1396 3030,1336L3164,1267L3134,1243C3083,1200 2928,1131 2825,1104C2431,1004 1965,1140 1833,1393C1810,1436 1806,1458 1806,1520C1806,1616 1834,1673 1922,1756C2100,1922 2417,2001 2720,1955Z" style="fill-rule:nonzero;"/>
    </g>
</svg>
